<svg width="60" height="60" viewBox="0 0 60 60" fill="none" xmlns="http://www.w3.org/2000/svg">
<circle cx="30" cy="30" r="30" fill="#3B5998"/>
<path d="M43.3333 15.125H16.6667C15.745 15.125 15 15.8903 15 16.8333V44.1667C15 45.1097 15.745 45.875 16.6667 45.875H31.025V33.985H27.1283V29.3298H31.025V25.9131C31.025 21.9412 33.3917 19.7768 36.8583 19.7768C38.0233 19.7734 39.19 19.8349 40.35 19.9596V24.0938H37.9583C36.0783 24.0938 35.7117 25.0128 35.7117 26.3573V29.3213H40.2067L39.6233 33.9765H35.71V45.875H43.3333C44.255 45.875 45 45.1097 45 44.1667V16.8333C45 15.8903 44.255 15.125 43.3333 15.125Z" fill="#FDFDFD"/>
</svg>
