<svg width="60" height="60" viewBox="0 0 60 60" fill="none" xmlns="http://www.w3.org/2000/svg">
<ellipse cx="30" cy="30" rx="29" ry="28" fill="white"/>
<path d="M59.997 29.9011C59.943 13.3766 46.5281 0 30.0015 0C13.4689 0 0.0569571 13.3766 0.00299753 29.9011C0.00299753 29.8711 0 29.8501 0 29.8231V29.985C0 29.985 0 29.988 0 29.994V29.997V30.1589C0 30.1379 -2.17417e-07 30.1139 0.00299753 30.0899C0.0539593 46.6174 13.4659 60 30.0015 60C46.5311 60 59.943 46.6234 59.997 30.0989C59.997 30.1259 60 30.1499 60 30.1769V30.015C60 30.012 60 30.006 60 30C60 29.994 60 29.991 60 29.985V29.8231C60 29.8531 59.997 29.8741 59.997 29.9011ZM21.8266 43.6404C14.3053 43.6404 8.19285 37.5277 8.19285 30.003C8.19285 22.4783 14.3053 16.3655 21.8266 16.3655C25.5139 16.3655 28.5956 17.7176 30.9578 19.9271L27.0757 23.6894C26.1014 22.7631 24.3807 21.6718 21.8266 21.6718C17.315 21.6718 13.6338 25.4222 13.6338 30.021C13.6338 34.6168 17.318 38.3671 21.8266 38.3671C27.0487 38.3671 28.9733 34.7517 29.327 32.6112H21.8206V32.5992V27.5207H34.5761C34.7739 28.3781 34.9208 29.1816 34.9208 30.3148C34.9208 38.1003 29.6987 43.6404 21.8266 43.6404ZM53.1771 31.364H47.7242V36.8172H43.6353V31.364H38.1794V27.2749H43.6353V21.8187H47.7242V27.2749H53.1771V31.364Z" fill="#DB4A39"/>
</svg>
