<svg width="60" height="60" viewBox="0 0 60 60" fill="none" xmlns="http://www.w3.org/2000/svg">
<circle cx="30" cy="30" r="30" fill="url(#paint0_linear)"/>
<g clip-path="url(#clip0)">
<circle cx="23.5" cy="34.5" r="22.5" fill="url(#paint1_radial)"/>
<ellipse cx="25.5" cy="35.5" rx="23.5" ry="22.5" fill="url(#paint2_radial)"/>
<path d="M30.0688 21.4841C25.2234 21.4841 21.2982 25.5011 21.2982 30.4554C21.2982 35.4116 25.2234 39.4285 30.0688 39.4285C34.9104 39.4285 38.8394 35.4116 38.8394 30.4554C38.8394 25.5011 34.9104 21.4841 30.0688 21.4841ZM30.0688 36.2848C26.9214 36.2848 24.3697 33.6748 24.3697 30.4573C24.3697 27.2379 26.9214 24.6298 30.0688 24.6298C33.2162 24.6298 35.7641 27.2379 35.7641 30.4573C35.7641 33.6748 33.2162 36.2848 30.0688 36.2848Z" fill="white"/>
<path d="M39.1885 23.2462C40.318 23.2462 41.2336 22.3096 41.2336 21.1542C41.2336 19.9989 40.318 19.0623 39.1885 19.0623C38.059 19.0623 37.1433 19.9989 37.1433 21.1542C37.1433 22.3096 38.059 23.2462 39.1885 23.2462Z" fill="white"/>
<path d="M46.2593 19.0274C45.3695 16.6812 43.5577 14.8261 41.264 13.9198C39.9379 13.4095 38.5359 13.1358 37.1168 13.1048C35.2898 13.0233 34.7112 13 30.0783 13C25.4454 13 24.8516 13 23.0398 13.1048C21.6245 13.1339 20.2225 13.4075 18.8964 13.9198C16.6008 14.8261 14.789 16.6812 13.9012 19.0274C13.4022 20.3858 13.1347 21.8179 13.1062 23.2695C13.0247 25.1363 13 25.7282 13 30.469C13 35.2078 13 35.8113 13.1062 37.6684C13.1347 39.12 13.4022 40.5521 13.9012 41.9125C14.7909 44.2567 16.6027 46.1118 18.8983 47.02C20.2187 47.5478 21.6207 47.8467 23.0436 47.8933C24.8706 47.9748 25.4492 48 30.0821 48C34.715 48 35.3088 48 37.1206 47.8933C38.5378 47.8642 39.9398 47.5886 41.2678 47.0802C43.5615 46.1701 45.3733 44.3168 46.2631 41.9707C46.762 40.6123 47.0295 39.1801 47.058 37.7286C47.1395 35.8618 47.1642 35.2699 47.1642 30.5291C47.1642 25.7883 47.1642 25.1867 47.058 23.3296C47.0333 21.8587 46.7677 20.4013 46.2593 19.0274ZM43.9485 37.5248C43.9352 38.6426 43.7379 39.7507 43.3585 40.8005C42.7799 42.3277 41.6017 43.5348 40.1105 44.1208C39.0956 44.507 38.0255 44.7088 36.9423 44.7243C35.14 44.8097 34.6315 44.8311 30.01 44.8311C25.3847 44.8311 24.9123 44.8311 23.0759 44.7243C21.9964 44.7107 20.9226 44.507 19.9095 44.1208C18.4126 43.5367 17.2269 42.3297 16.6483 40.8005C16.2764 39.7642 16.0753 38.6678 16.0582 37.5617C15.9767 35.7182 15.9577 35.1981 15.9577 30.4709C15.9577 25.7417 15.9577 25.2585 16.0582 23.3781C16.0715 22.2604 16.2688 21.1542 16.6483 20.1044C17.2269 18.5733 18.4126 17.3682 19.9095 16.7822C20.9226 16.3979 21.9964 16.1942 23.0759 16.1786C24.8801 16.0952 25.3866 16.0719 30.01 16.0719C34.6334 16.0719 35.1077 16.0719 36.9423 16.1786C38.0255 16.1922 39.0956 16.396 40.1105 16.7822C41.6017 17.3701 42.7799 18.5772 43.3585 20.1044C43.7303 21.1407 43.9314 22.2371 43.9485 23.3432C44.0301 25.1887 44.051 25.7068 44.051 30.436C44.051 35.1632 44.051 35.6716 43.9694 37.5268H43.9485V37.5248Z" fill="white"/>
</g>
<defs>
<linearGradient id="paint0_linear" x1="17" y1="37.5" x2="7.5" y2="11" gradientUnits="userSpaceOnUse">
<stop stop-color="#D4327D"/>
<stop offset="1" stop-color="#0047FF"/>
</linearGradient>
<radialGradient id="paint1_radial" cx="0" cy="0" r="1" gradientUnits="userSpaceOnUse" gradientTransform="translate(19.0882 40.6765) rotate(-52.4314) scale(21.7075 19.9504)">
<stop stop-color="#F77737"/>
<stop offset="1" stop-color="#FCAF45" stop-opacity="0"/>
</radialGradient>
<radialGradient id="paint2_radial" cx="0" cy="0" r="1" gradientUnits="userSpaceOnUse" gradientTransform="translate(24.1176 39.9118) rotate(-45.6648) scale(19.1209 17.6075)">
<stop stop-color="#FCAF45"/>
<stop offset="1" stop-color="#FCAF45" stop-opacity="0"/>
</radialGradient>
<clipPath id="clip0">
<rect width="60" height="57" fill="white"/>
</clipPath>
</defs>
</svg>
