<svg width="60" height="60" viewBox="0 0 60 60" fill="none" xmlns="http://www.w3.org/2000/svg">
<circle cx="30" cy="30" r="30" fill="#0F76A8"/>
<path d="M19.305 21.995C21.319 21.995 22.9517 20.3623 22.9517 18.3483C22.9517 16.3343 21.319 14.7017 19.305 14.7017C17.291 14.7017 15.6584 16.3343 15.6584 18.3483C15.6584 20.3623 17.291 21.995 19.305 21.995Z" fill="white"/>
<path d="M26.395 24.7583V44.99H32.6767V34.985C32.6767 32.345 33.1733 29.7883 36.4467 29.7883C39.675 29.7883 39.715 32.8067 39.715 35.1517V44.9917H46V33.8967C46 28.4467 44.8267 24.2583 38.4567 24.2583C35.3983 24.2583 33.3483 25.9367 32.51 27.525H32.425V24.7583H26.395V24.7583ZM16.1583 24.7583H22.45V44.99H16.1583V24.7583Z" fill="white"/>
</svg>
