<svg width="60" height="60" viewBox="0 0 60 60" fill="none" xmlns="http://www.w3.org/2000/svg">
<circle cx="30" cy="30" r="30" fill="#C8232C"/>
<path d="M29.6035 10C18.2231 10 9 19.2252 9 30.6035C9 39.3316 14.4303 46.7934 22.0963 49.7963C21.9148 48.167 21.7539 45.6591 22.1664 43.8813C22.5418 42.2726 24.5836 33.6393 24.5836 33.6393C24.5836 33.6393 23.9669 32.4039 23.9669 30.5787C23.9669 27.7161 25.6271 25.5774 27.6957 25.5774C29.455 25.5774 30.3026 26.8973 30.3026 28.4792C30.3026 30.2487 29.1765 32.8907 28.597 35.3408C28.1123 37.3909 29.6262 39.0635 31.6473 39.0635C35.3081 39.0635 38.1253 35.2026 38.1253 29.6279C38.1253 24.6947 34.5801 21.2463 29.5189 21.2463C23.6555 21.2463 20.2133 25.6434 20.2133 30.1869C20.2133 31.9564 20.896 33.8559 21.7478 34.8892C21.9148 35.0934 21.9396 35.2707 21.8901 35.479C21.7333 36.1287 21.3848 37.529 21.3188 37.8157C21.228 38.1931 21.0197 38.2736 20.6279 38.0921C18.056 36.8938 16.4474 33.132 16.4474 30.1085C16.4474 23.6098 21.1682 17.6412 30.0613 17.6412C37.2096 17.6412 42.7637 22.7333 42.7637 29.5413C42.7637 36.6443 38.2862 42.3551 32.0722 42.3551C29.9829 42.3551 28.0216 41.2723 27.3493 39.9916C27.3493 39.9916 26.316 43.9246 26.0644 44.8877C25.6003 46.6779 24.3443 48.9218 23.5049 50.2913C25.4333 50.8873 27.4812 51.209 29.6055 51.209C40.9838 51.209 50.209 41.9838 50.209 30.6055C50.209 19.2272 40.9818 10 29.6035 10Z" fill="white"/>
</svg>
