<svg width="60" height="60" viewBox="0 0 60 60" fill="none" xmlns="http://www.w3.org/2000/svg">
<circle cx="30" cy="30" r="30" fill="#FFFC00"/>
<path d="M40.4537 26.0563L40.4536 26.0563L40.4531 26.0671L40.4494 26.154C40.427 26.4526 40.4128 26.7223 40.4006 26.9892L40.3872 27.2855L40.6408 27.4394C40.8569 27.5705 41.1589 27.6574 41.5509 27.6574H41.5644L41.5778 27.6567C42.1498 27.6258 42.7994 27.4329 43.4473 27.1208L43.4553 27.1169L43.4632 27.1128C43.6307 27.0246 43.8277 27.0006 43.9841 27.0006C44.2312 27.0006 44.453 27.0401 44.6217 27.109L44.6372 27.1153L44.653 27.1206C45.2547 27.3206 45.5031 27.7105 45.5031 28.0082V28.0172L45.5034 28.0262C45.5102 28.2147 45.4366 28.4259 45.1826 28.6705C44.9216 28.9219 44.4935 29.1825 43.8619 29.4357C43.7919 29.4588 43.7132 29.487 43.6358 29.5148L43.6124 29.5232C43.5198 29.5563 43.4239 29.5905 43.3251 29.6229C42.9587 29.733 42.4592 29.8894 42.0063 30.1208C41.5634 30.347 41.075 30.689 40.8472 31.2178L40.8444 31.2242L40.8417 31.2308C40.6237 31.7791 40.7241 32.4228 41.0631 33.0593L41.0933 33.1161L41.1059 33.1297C41.2636 33.475 41.9034 34.7986 43.0885 36.1912C44.4042 37.7371 46.4238 39.4044 49.2345 39.8694C49.4074 39.8998 49.507 40.0521 49.4996 40.1717L49.4986 40.1873V40.2029C49.4986 40.2477 49.4897 40.304 49.461 40.3839C49.3419 40.654 48.9844 40.9856 48.1777 41.3119C47.3815 41.6339 46.2449 41.9117 44.7386 42.1376L44.5148 42.1712L44.3923 42.3614C44.3346 42.4512 44.2949 42.5551 44.2684 42.632C44.239 42.7176 44.2118 42.8124 44.1875 42.9051C44.1477 43.0562 44.1098 43.2229 44.0782 43.3619C44.0714 43.392 44.0648 43.4209 44.0586 43.448L44.0545 43.466L44.0517 43.4842C44.0125 43.7411 43.9433 44.0082 43.8512 44.312L43.8511 44.3119L43.8482 44.3223C43.8116 44.4533 43.7589 44.5128 43.7149 44.5445C43.6676 44.5784 43.5826 44.6139 43.4284 44.6139H43.3799C43.2193 44.6139 42.974 44.5777 42.6049 44.5048C41.9948 44.3761 41.3037 44.2764 40.4353 44.2764C39.9349 44.2764 39.4167 44.3012 38.8661 44.4058C37.7627 44.5989 36.8214 45.2564 35.8683 45.9228L35.8681 45.923L35.8582 45.9298C34.4682 46.9031 33.0068 47.9263 30.8012 47.9263C30.789 47.9263 30.7717 47.9247 30.7166 47.9179L30.7105 47.9172C30.6648 47.9115 30.5885 47.902 30.5062 47.902H30.2657C28.0528 47.902 26.6122 46.8969 25.2281 45.9022L25.2238 45.8992L25.1672 45.8594C24.2379 45.2062 23.3326 44.5698 22.2482 44.3789L22.2393 44.3774L22.2303 44.3761C21.7099 44.3038 21.1713 44.2501 20.6559 44.2501C19.7966 44.2501 19.1142 44.3819 18.6194 44.4775C18.5765 44.4858 18.535 44.4938 18.4949 44.5015L18.4948 44.5014L18.4876 44.5029C18.145 44.5734 17.8981 44.6119 17.7093 44.6119C17.5126 44.6119 17.4214 44.5568 17.3736 44.515C17.3166 44.465 17.2702 44.3874 17.2364 44.2808C17.1953 44.1489 17.1635 44.01 17.1314 43.8583C17.1247 43.8266 17.1179 43.7938 17.1109 43.7602C17.086 43.64 17.0589 43.5097 17.028 43.3871L17.0281 43.3871L17.0271 43.3833C17.0097 43.3168 16.9909 43.2364 16.9693 43.144L16.9678 43.1375C16.9472 43.0494 16.9245 42.9523 16.9009 42.8595C16.8771 42.7656 16.8499 42.6665 16.8197 42.5781C16.7954 42.5069 16.7496 42.3807 16.6697 42.2775L16.541 42.1112L16.332 42.0869C14.7918 41.9083 13.6408 41.6534 12.8402 41.3412C12.0221 41.0221 11.6681 40.6819 11.5533 40.4015L11.5469 40.3859L11.5395 40.3708C11.5216 40.3343 11.5032 40.2647 11.5014 40.2087L11.5011 40.2003L11.5005 40.1919C11.4925 40.0718 11.5887 39.9225 11.7661 39.8915C14.5756 39.4264 16.5946 37.7598 17.9102 36.2133C19.1701 34.7325 19.8143 33.3286 19.9194 33.0906L19.9331 33.0662L19.9371 33.0592L19.9408 33.0521C20.2607 32.441 20.4123 31.7708 20.1465 31.1994C19.9157 30.6871 19.4268 30.3548 18.9919 30.1326C18.5658 29.915 18.0951 29.7567 17.7459 29.6392C17.7266 29.6327 17.7076 29.6263 17.6891 29.6201L17.6667 29.6125L17.6437 29.6071C17.4872 29.5704 17.3241 29.5087 17.1606 29.4395L17.1606 29.4393L17.1485 29.4346C16.2935 29.0983 15.8762 28.7642 15.6796 28.5061C15.4987 28.2686 15.4866 28.073 15.5132 27.9202C15.5532 27.7116 15.7111 27.4948 15.9903 27.3183C16.2685 27.1425 16.6143 27.043 16.9191 27.043C17.0819 27.043 17.2175 27.0735 17.3438 27.1237C18.0491 27.447 18.7239 27.6513 19.3362 27.6513C19.8046 27.6513 20.1354 27.5309 20.3403 27.4124L20.6165 27.2527L20.588 26.935L20.5058 26.0164L20.5045 25.9957C20.4238 24.6778 20.3351 23.2282 20.3708 21.8697C20.407 20.4913 20.5711 19.2694 20.9623 18.3994L20.9624 18.3994L20.9647 18.3941C23.3376 12.9495 28.4988 12.5222 30.0535 12.5222H30.0617L30.0699 12.522L30.7387 12.5H30.8295C32.3828 12.5 37.5616 12.9358 40.0108 18.4138C40.3998 19.2895 40.5623 20.5158 40.5968 21.8966C40.631 23.2672 40.5388 24.7299 40.4537 26.0563Z" fill="white" stroke="black"/>
</svg>
