<svg width="60" height="60" viewBox="0 0 60 60" fill="none" xmlns="http://www.w3.org/2000/svg">
<circle cx="30" cy="30" r="30" fill="#00ACEE"/>
<path d="M46.1406 22.4765C46.165 22.8054 46.165 23.1324 46.165 23.4595C46.165 33.4676 38.5475 45 24.6264 45C20.3374 45 16.353 43.7577 13 41.6001C13.6089 41.6696 14.1953 41.694 14.8287 41.694C18.3677 41.694 21.6249 40.4987 24.2279 38.4595C20.8994 38.3899 18.1103 36.2097 17.148 33.2101C17.616 33.2797 18.0858 33.3267 18.5782 33.3267C19.2567 33.3267 19.939 33.2327 20.5724 33.0692C17.101 32.3662 14.5017 29.3196 14.5017 25.6396V25.5457C15.511 26.1076 16.6819 26.4591 17.9223 26.5061C15.8831 25.1491 14.5468 22.828 14.5468 20.2024C14.5468 18.7965 14.9208 17.5072 15.5767 16.3833C19.3037 20.9748 24.9064 23.9763 31.1876 24.3052C31.071 23.7414 30.9996 23.1569 30.9996 22.5705C30.9996 18.3981 34.3751 15 38.5701 15C40.7503 15 42.7181 15.9134 44.1014 17.3907C45.8117 17.0618 47.4506 16.4284 48.9053 15.562C48.3433 17.3193 47.1461 18.7965 45.5767 19.7344C47.101 19.569 48.5782 19.148 49.9352 18.5616C48.9053 20.0614 47.6178 21.3977 46.1406 22.4765Z" fill="white"/>
</svg>
