<svg width="60" height="60" viewBox="0 0 60 60" fill="none" xmlns="http://www.w3.org/2000/svg">
<circle cx="30" cy="30" r="30" fill="#00BB2D"/>
<path fill-rule="evenodd" clip-rule="evenodd" d="M42.2052 17.8577C39.239 14.888 35.2945 13.2518 31.0928 13.25C22.4338 13.25 15.3848 20.2973 15.3813 28.9598C15.3813 31.7283 16.104 34.4303 17.4777 36.8138L15.25 44.953L23.5782 42.7673C25.8742 44.0185 28.4572 44.6782 31.0857 44.68H31.0928C39.75 44.68 46.799 37.6327 46.8025 28.9702C46.8025 24.7737 45.1715 20.8275 42.2052 17.8577ZM31.0928 42.0287H31.0875C28.7443 42.027 26.4465 41.3987 24.441 40.207L23.965 39.9235L19.023 41.2202L20.3407 36.4025L20.031 35.909C18.7237 33.83 18.0343 31.4273 18.0343 28.9598C18.0378 21.7603 23.895 15.903 31.098 15.903C34.5857 15.9047 37.8635 17.2645 40.3292 19.732C42.7932 22.2013 44.1512 25.4807 44.1495 28.9702C44.146 36.1697 38.2888 42.0287 31.0928 42.0287ZM38.2555 32.248C37.8617 32.0502 35.9332 31.1018 35.5727 30.9705C35.214 30.8393 34.9533 30.7745 34.6908 31.1665C34.4283 31.5585 33.6757 32.4422 33.4465 32.7047C33.2172 32.9672 32.988 32.9988 32.596 32.8028C32.204 32.6068 30.9387 32.192 29.439 30.855C28.2717 29.8138 27.4842 28.5292 27.255 28.1355C27.0257 27.7417 27.2305 27.53 27.4282 27.334C27.605 27.159 27.8203 26.8755 28.0163 26.6462C28.2123 26.417 28.277 26.2543 28.4083 25.9918C28.5395 25.7293 28.4748 25.5 28.375 25.304C28.277 25.1062 27.4912 23.1743 27.164 22.3885C26.8472 21.6273 26.5235 21.7288 26.282 21.7183C26.0545 21.7078 25.792 21.7042 25.5312 21.7042C25.2687 21.7042 24.8435 21.8023 24.483 22.1943C24.1225 22.588 23.1093 23.5365 23.1093 25.4685C23.1093 27.4005 24.5162 29.2678 24.7122 29.5303C24.9082 29.7928 27.4808 33.7565 31.4183 35.4575C32.3563 35.8617 33.0877 36.1033 33.6565 36.2853C34.5962 36.5845 35.452 36.5408 36.1292 36.441C36.8835 36.329 38.4515 35.4925 38.7787 34.5755C39.106 33.6585 39.106 32.8728 39.008 32.7083C38.91 32.5438 38.6457 32.444 38.2555 32.248Z" fill="white"/>
</svg>
